{
    "asset" : {
        "generator" : "Khronos glTF Blender I/O v1.7.33",
        "version" : "2.0"
    },
    "scene" : 0,
    "scenes" : [
        {
            "name" : "Scene",
            "nodes" : [
                0
            ]
        }
    ],
    "nodes" : [
        {
            "mesh" : 0,
            "name" : "gun",
            "rotation" : [
                0,
                1,
                0,
                -4.371138828673793e-08
            ],
            "scale" : [
                -0.019038552418351173,
                0.06796101480722427,
                0.06499907374382019
            ],
            "translation" : [
                6.198883056640625e-06,
                0.05134088173508644,
                -0.003191651776432991
            ]
        }
    ],
    "materials" : [
        {
            "doubleSided" : true,
            "name" : "gun",
            "pbrMetallicRoughness" : {
                "baseColorFactor" : [
                    0.022877704352140427,
                    0.022877704352140427,
                    0.022877704352140427,
                    1
                ],
                "roughnessFactor" : 0.6352940201759338
            }
        }
    ],
    "meshes" : [
        {
            "name" : "gun",
            "primitives" : [
                {
                    "attributes" : {
                        "POSITION" : 0
                    },
                    "indices" : 1,
                    "material" : 0
                }
            ]
        }
    ],
    "accessors" : [
        {
            "bufferView" : 0,
            "componentType" : 5126,
            "count" : 2444,
            "max" : [
                1.3904317617416382,
                0.9289119839668274,
                2.360705852508545
            ],
            "min" : [
                -1.3896719217300415,
                -1.5964899063110352,
                -1.667844533920288
            ],
            "type" : "VEC3"
        },
        {
            "bufferView" : 1,
            "componentType" : 5123,
            "count" : 4992,
            "type" : "SCALAR"
        }
    ],
    "bufferViews" : [
        {
            "buffer" : 0,
            "byteLength" : 29328,
            "byteOffset" : 0
        },
        {
            "buffer" : 0,
            "byteLength" : 9984,
            "byteOffset" : 29328
        }
    ],
    "buffers" : [
        {
            "byteLength" : 39312,
            "uri" : "clonehandgun.bin"
        }
    ]
}
